<?xml version="1.0" encoding="utf-8"?>
<!-- Generator: Adobe Illustrator 19.0.0, SVG Export Plug-In . SVG Version: 6.00 Build 0)  -->
<svg version="1.2" baseProfile="tiny" id="Layer_2" xmlns="http://www.w3.org/2000/svg" xmlns:xlink="http://www.w3.org/1999/xlink"
	 x="0px" y="0px" width="258.5px" height="186.5px" viewBox="0 0 258.5 186.5" xml:space="preserve">
<g id="XMLID_13_">
	<g id="XMLID_1681_">
		<ellipse id="XMLID_1837_" fill="#D9D9D9" cx="72.5" cy="182" rx="62.3" ry="4.5"/>
		<g id="XMLID_1916_">
			<g id="XMLID_1915_">
				<path id="XMLID_1695_" fill="#C4A3CD" stroke="#000000" stroke-width="3" stroke-miterlimit="10" d="M81.3,42.7H62.9
					c-2.5,0-4.5-2-4.5-4.5V15.8c0-2.5,2-4.5,4.5-4.5h18.4c2.5,0,4.5,2,4.5,4.5v22.5C85.7,40.7,83.7,42.7,81.3,42.7z"/>
				<path id="XMLID_1913_" fill="#9B6EB0" stroke="#000000" stroke-width="3" stroke-miterlimit="10" d="M101.8,16.2H42.3
					c-1.9,0-3.5-1.6-3.5-3.5V5c0-1.9,1.6-3.5,3.5-3.5h59.5c1.9,0,3.5,1.6,3.5,3.5v7.7C105.4,14.6,103.8,16.2,101.8,16.2z"/>
			</g>
			
				<circle id="XMLID_1836_" fill="#9B6EB0" stroke="#000000" stroke-width="3" stroke-miterlimit="10" cx="72.1" cy="107.5" r="70.6"/>
			
				<circle id="XMLID_1835_" fill="#FFFFFF" stroke="#000000" stroke-width="3" stroke-linecap="round" stroke-miterlimit="10" cx="72.1" cy="107.5" r="54.4"/>
			<g id="XMLID_1682_">
				<g id="XMLID_1718_">
					
						<circle id="XMLID_1726_" stroke="#000000" stroke-width="3" stroke-linecap="round" stroke-miterlimit="10" cx="72.1" cy="107.5" r="7.7"/>
					
						<line id="XMLID_1719_" fill="#FFFFFF" stroke="#000000" stroke-width="3" stroke-linecap="round" stroke-miterlimit="10" x1="72.1" y1="107.5" x2="103.2" y2="89.7"/>
				</g>
				<g id="XMLID_1696_">
					<circle id="XMLID_1708_" stroke="#000000" stroke-miterlimit="10" cx="53.8" cy="75.3" r="3.9"/>
					<circle id="XMLID_1707_" stroke="#000000" stroke-miterlimit="10" cx="36.4" cy="97.7" r="3.9"/>
					<circle id="XMLID_1706_" stroke="#000000" stroke-miterlimit="10" cx="39.9" cy="125.8" r="3.9"/>
					<circle id="XMLID_1705_" stroke="#000000" stroke-miterlimit="10" cx="62.3" cy="143.1" r="3.9"/>
					<circle id="XMLID_1698_" stroke="#000000" stroke-miterlimit="10" cx="90.4" cy="139.6" r="3.9"/>
					<circle id="XMLID_1697_" stroke="#000000" stroke-miterlimit="10" cx="107.7" cy="117.3" r="3.9"/>
					<circle id="XMLID_1727_" stroke="#000000" stroke-miterlimit="10" cx="81.9" cy="71.8" r="3.9"/>
				</g>
			</g>
			<path id="XMLID_1917_" fill="#9B6EB0" stroke="#000000" stroke-width="3" stroke-miterlimit="10" d="M143.9,63.7l-5.1,4.7
				c-1.3,1.2-3.3,1.1-4.5-0.2l-18.4-20c-1.2-1.3-1.1-3.3,0.2-4.5l5.1-4.7c1.3-1.2,3.3-1.1,4.5,0.2l18.4,20
				C145.3,60.5,145.3,62.5,143.9,63.7z"/>
		</g>
	</g>
	<g id="XMLID_1_">
		
			<line id="XMLID_2_" fill="none" stroke="#000000" stroke-width="3" stroke-linecap="round" stroke-miterlimit="10" x1="167.8" y1="85.8" x2="215.3" y2="85.8"/>
		
			<line id="XMLID_3_" fill="none" stroke="#000000" stroke-width="3" stroke-linecap="round" stroke-miterlimit="10" x1="167.8" y1="106.3" x2="236.1" y2="106.3"/>
		
			<line id="XMLID_4_" fill="none" stroke="#000000" stroke-width="3" stroke-linecap="round" stroke-miterlimit="10" x1="167.8" y1="126.7" x2="257" y2="126.7"/>
	</g>
</g>
</svg>
