<?xml version="1.0" encoding="utf-8"?>
<!-- Generator: Adobe Illustrator 19.0.0, SVG Export Plug-In . SVG Version: 6.00 Build 0)  -->
<svg version="1.2" baseProfile="tiny" id="Isolation_Mode"
	 xmlns="http://www.w3.org/2000/svg" xmlns:xlink="http://www.w3.org/1999/xlink" x="0px" y="0px" width="158.7px" height="185px"
	 viewBox="0 0 158.7 185" xml:space="preserve">
<g id="XMLID_2371_">
	<ellipse id="XMLID_2470_" fill="#DCDDDE" cx="60.9" cy="181.6" rx="48.9" ry="3.4"/>
	<g id="XMLID_2471_">
		<g id="XMLID_2478_">
			<path id="XMLID_2484_" fill="#E3D475" stroke="#000000" stroke-width="3" stroke-linecap="round" stroke-miterlimit="10" d="
				M79.9,42.5L79.9,42.5c-0.2,0-0.4,0-0.5,0c-0.2,0-0.4,0-0.5,0v0c-21.9,0.6-39.5,18.4-39.5,40.3c0,23.5,19.4,33.9,22.5,57.5h16.9
				h1.1h16.9c3.2-23.6,22.5-34,22.5-57.5C119.4,60.9,101.8,43.1,79.9,42.5z"/>
			<path id="XMLID_2483_" fill="none" stroke="#030404" stroke-width="3" stroke-linecap="round" stroke-miterlimit="10" d="
				M67.3,63.3c-7.9,1.6-12.8,10.8-12,17.9"/>
			
				<ellipse id="XMLID_2482_" fill="#4F4F4F" stroke="#030404" stroke-width="3" stroke-linecap="round" stroke-miterlimit="10" cx="79.4" cy="170.9" rx="10.4" ry="8.4"/>
			<g id="XMLID_2479_">
				<path id="XMLID_2481_" fill="#B0AFB0" stroke="#000000" stroke-width="3" stroke-miterlimit="10" d="M96.6,169H62.2
					c-0.4,0-0.8-0.4-0.8-0.8v-28.1h36v28.1C97.3,168.6,97,169,96.6,169z"/>
				
					<line id="XMLID_2480_" fill="#FFFFFF" stroke="#030404" stroke-width="3" stroke-linecap="round" stroke-miterlimit="10" x1="96.4" y1="154.5" x2="62.4" y2="154.5"/>
			</g>
		</g>
		<g id="XMLID_2472_">
			
				<line id="XMLID_2477_" fill="none" stroke="#030404" stroke-width="3" stroke-linecap="round" stroke-miterlimit="10" x1="1.5" y1="78.3" x2="20.4" y2="78.8"/>
			
				<line id="XMLID_2476_" fill="none" stroke="#030404" stroke-width="3" stroke-linecap="round" stroke-miterlimit="10" x1="25.6" y1="23.7" x2="38.6" y2="37.5"/>
			
				<line id="XMLID_2475_" fill="none" stroke="#030404" stroke-width="3" stroke-linecap="round" stroke-miterlimit="10" x1="81.2" y1="2.3" x2="80.7" y2="21.2"/>
			
				<line id="XMLID_2474_" fill="none" stroke="#030404" stroke-width="3" stroke-linecap="round" stroke-miterlimit="10" x1="135.7" y1="26.4" x2="122" y2="39.3"/>
			
				<line id="XMLID_2473_" fill="none" stroke="#030404" stroke-width="3" stroke-linecap="round" stroke-miterlimit="10" x1="157.2" y1="82" x2="138.3" y2="81.4"/>
		</g>
	</g>
	<g id="XMLID_2379_">
		<g id="XMLID_2380_">
			<g id="XMLID_2417_">
				<path id="XMLID_2469_" fill="#9BD2AA" stroke="#000000" stroke-width="3" stroke-miterlimit="10" d="M29.6,121.6l-22.5,22
					c-2.3,2.2-2.3,5.9-0.1,8.2l0,0c2.2,2.3,5.9,2.3,8.2,0.1l22.5-22L29.6,121.6z"/>
			</g>
			<path id="XMLID_2414_" fill="#FFFFFF" stroke="#030404" stroke-width="3" stroke-linecap="round" stroke-miterlimit="10" d="
				M50.4,79.7c-16,0-29,13-29,29c0,16,13,29,29,29s29-13,29-29C79.4,92.7,66.4,79.7,50.4,79.7z M50.4,128.8c-11,0-20-8.9-20-20
				s8.9-20,20-20c11,0,20,8.9,20,20S61.4,128.8,50.4,128.8z"/>
		</g>
	</g>
</g>
</svg>
