<?xml version="1.0" encoding="utf-8"?>
<!-- Generator: Adobe Illustrator 19.0.0, SVG Export Plug-In . SVG Version: 6.00 Build 0)  -->
<svg version="1.2" baseProfile="tiny" id="Layer_1" xmlns="http://www.w3.org/2000/svg" xmlns:xlink="http://www.w3.org/1999/xlink"
	 x="0px" y="0px" width="133.1px" height="185px" viewBox="0 0 133.1 185" xml:space="preserve">
<g id="XMLID_35_">
	<path id="XMLID_36_" fill-rule="evenodd" fill="#DCDDDE" d="M62.1,179c27.5,0,49.8,1.3,49.8,3c0,1.7-22.3,3-49.8,3
		c-27.5,0-49.8-1.3-49.8-3C12.3,180.3,34.6,179,62.1,179z"/>
	<g id="XMLID_57_">
		<g id="XMLID_222_">
			<path id="XMLID_291_" fill="#E3BB7B" stroke="#000000" stroke-width="3" stroke-miterlimit="10" d="M48.4,140.8l-28.3,27.7
				c-2.8,2.8-2.9,7.4-0.1,10.3l0,0c2.8,2.8,7.4,2.9,10.3,0.1l28.3-27.7L48.4,140.8z"/>
		</g>
		<path id="XMLID_265_" fill="#FFFFFF" stroke="#000000" stroke-width="3" stroke-linecap="round" stroke-miterlimit="10" d="
			M74.5,88C54.3,88,38,104.3,38,124.5S54.3,161,74.5,161s36.5-16.3,36.5-36.5S94.6,88,74.5,88z M74.5,152.3
			c-15.4,0-27.8-12.5-27.8-27.8c0-15.4,12.5-27.8,27.8-27.8c15.4,0,27.8,12.5,27.8,27.8C102.3,139.8,89.8,152.3,74.5,152.3z"/>
		<path id="XMLID_161_" fill="none" stroke="#000000" stroke-width="3" stroke-linecap="round" stroke-miterlimit="10" d="M91.1,126
			c2.6-5.5,0.5-12-4.6-14.4"/>
	</g>
	<path id="XMLID_92_" fill="#FFFFFF" stroke="#000000" stroke-width="3" stroke-miterlimit="10" d="M6.5,49.2c3.3-7.2,6-8.6,8.2-6.2
		c8.2,9.3,18.4,1.5,20.1,2.4c2.3,1.1,0.5,7.9,7.9,11.5c5.9,2.8,11.8,5.4,13,10c0.7,2.7-1.2,7.7-4.4,8.7c-3.2,1-47.1-18.9-47.1-18.9
		S4.8,53,6.5,49.2z"/>
	<path id="XMLID_62_" fill="#FFDAA0" stroke="#000000" stroke-width="3" stroke-miterlimit="10" d="M50.3,78.9l-47-16.9
		c-1.4-0.5-2.2-2.1-1.7-3.5l0,0c0.5-1.4,2.1-2.2,3.5-1.7l47,16.9c1.4,0.5,2.2,2.1,1.7,3.5l0,0C53.3,78.7,51.7,79.4,50.3,78.9z"/>
	
		<line id="XMLID_95_" fill="#FFFFFF" stroke="#000000" stroke-width="3" stroke-linecap="round" stroke-miterlimit="10" x1="32.4" y1="56.4" x2="39.1" y2="54.6"/>
	
		<line id="XMLID_96_" fill="#FFFFFF" stroke="#000000" stroke-width="3" stroke-linecap="round" stroke-miterlimit="10" x1="36.6" y1="59.3" x2="43.4" y2="57.5"/>
	
		<line id="XMLID_114_" fill="#FFFFFF" stroke="#000000" stroke-width="3" stroke-linecap="round" stroke-miterlimit="10" x1="41.8" y1="61.8" x2="48.6" y2="60.1"/>
	<g id="XMLID_191_">
		<path id="XMLID_183_" fill="#FFFFFF" stroke="#000000" stroke-width="3" stroke-miterlimit="10" d="M76.1,14.1l-2.8-1.1
			c-1.5-0.6-2.2-2.2-1.6-3.7L73,5.7c0.6-1.5,2.2-2.2,3.7-1.6l2.8,1.1c1.5,0.6,2.2,2.2,1.6,3.7l-1.4,3.7C79.2,14,77.5,14.7,76.1,14.1
			z"/>
		<path id="XMLID_175_" fill="#FFDAA0" stroke="#000000" stroke-width="3" stroke-miterlimit="10" d="M75.3,38.4l-17.7-6.8
			c-1.5-0.6-2.2-2.2-1.6-3.7l6.8-17.6c0.6-1.5,2.2-2.2,3.7-1.6l17.7,6.8c1.5,0.6,2.2,2.2,1.6,3.7L79,36.7
			C78.4,38.2,76.7,38.9,75.3,38.4z"/>
		<path id="XMLID_180_" fill="#FFFFFF" stroke="#000000" stroke-width="3" stroke-miterlimit="10" d="M73,31.6l-9.1-3.5
			c-1.5-0.6-2.2-2.2-1.6-3.7l2.8-7.4c0.6-1.5,2.2-2.2,3.7-1.6l9.1,3.5c1.5,0.6,2.2,2.2,1.6,3.7L76.6,30C76.1,31.4,74.4,32.2,73,31.6
			z"/>
		
			<line id="XMLID_216_" fill="#FFFFFF" stroke="#000000" stroke-width="3" stroke-linecap="round" stroke-miterlimit="10" x1="68.2" y1="20.3" x2="75" y2="22.9"/>
		
			<line id="XMLID_227_" fill="#FFFFFF" stroke="#000000" stroke-width="3" stroke-linecap="round" stroke-miterlimit="10" x1="67.7" y1="23.7" x2="73" y2="25.7"/>
	</g>
	<g id="XMLID_206_">
		<g id="XMLID_229_">
			<path id="XMLID_52_" fill="#FFDAA0" d="M95.3,74.5c-1.1,0-2.1-0.7-2.6-1.7c-4.6-11.3-0.8-23.7,8.5-27.7l0.1-0.1l0.2-0.1l0.1,0
				c1.8-0.7,3.6-1,5.6-1c8.2,0,16.1,6.1,19.8,15.1c0.3,0.7,0.3,1.4,0,2.1s-0.8,1.2-1.5,1.5c-0.3,0.1-0.7,0.2-1,0.2l0,0
				c-1.1,0-2.1-0.7-2.6-1.7c-2.8-6.8-8.8-11.6-14.6-11.6c-1.3,0-2.6,0.2-3.7,0.7c-6.6,2.7-9.1,11.9-5.6,20.6c0.3,0.7,0.3,1.4,0,2.1
				c-0.3,0.7-0.8,1.2-1.5,1.5C96,74.4,95.6,74.5,95.3,74.5z"/>
			<path id="XMLID_46_" d="M107.2,45.4c7.4,0,14.9,5.5,18.4,14.1c0.3,0.6-0.1,1.4-0.7,1.6c-0.2,0.1-0.3,0.1-0.5,0.1
				c-0.5,0-1-0.3-1.2-0.8c-3.1-7.7-9.7-12.6-16-12.6c-1.5,0-2.9,0.3-4.3,0.8c-7.4,3-10.3,13.1-6.5,22.5c0.3,0.6-0.1,1.4-0.7,1.6
				C95.6,73,95.4,73,95.3,73c-0.5,0-1-0.3-1.2-0.8c-4.3-10.6-0.8-22.1,7.7-25.8c0,0,0,0,0.1,0c0,0,0.1,0,0.1,0c0,0,0.1,0,0.1,0
				c0,0,0.1,0,0.1,0C103.8,45.7,105.5,45.4,107.2,45.4 M107.2,42.4c-2.1,0-4.1,0.4-6,1.1c-0.1,0-0.2,0.1-0.3,0.1l-0.1,0l0,0
				c0,0-0.1,0-0.1,0l-0.2,0.1l-0.1,0c-9.9,4.3-14,17.5-9.2,29.6c0.7,1.6,2.2,2.7,4,2.7c0.5,0,1.1-0.1,1.6-0.3
				c2.2-0.9,3.2-3.4,2.4-5.5c-3.2-7.9-1-16.2,4.8-18.6c1-0.4,2-0.6,3.1-0.6c5.2,0,10.7,4.4,13.2,10.7c0.7,1.6,2.2,2.7,4,2.7
				c0.5,0,1.1-0.1,1.6-0.3c1.1-0.4,1.9-1.2,2.3-2.3c0.4-1,0.5-2.2,0-3.3C124.5,48.9,116,42.4,107.2,42.4L107.2,42.4z"/>
		</g>
		<g id="XMLID_228_">
			<path id="XMLID_231_" fill="#FFFFFF" stroke="#000000" stroke-width="3" stroke-linecap="round" stroke-miterlimit="10" d="
				M129.1,72L129.1,72c2-0.8,3-3.1,2.2-5.1l-4.1-10.2c-0.8-2-3.1-3-5.1-2.2h0c-2,0.8-3,3.1-2.2,5.1l4.1,10.2
				C124.8,71.9,127.1,72.8,129.1,72z"/>
			<path id="XMLID_230_" d="M132.1,65L132.1,65c0.6-0.2,0.9-1,0.7-1.6l-2.1-5.2c-0.2-0.6-1-0.9-1.6-0.7l0,0c-0.6,0.2-0.9,1-0.7,1.6
				l2.1,5.2C130.8,65,131.5,65.3,132.1,65z"/>
		</g>
		<g id="XMLID_28_">
			<path id="XMLID_30_" fill="#FFFFFF" stroke="#000000" stroke-width="3" stroke-linecap="round" stroke-miterlimit="10" d="
				M100.1,83.7L100.1,83.7c-2,0.8-4.3-0.2-5.1-2.2l-4.1-10.2c-0.8-2,0.2-4.3,2.2-5.1h0c2-0.8,4.3,0.2,5.1,2.2l4.1,10.2
				C103.1,80.6,102.2,82.9,100.1,83.7z"/>
			<path id="XMLID_29_" d="M93.1,80.7L93.1,80.7c-0.6,0.2-1.3-0.1-1.6-0.7l-2.1-5.2c-0.2-0.6,0.1-1.3,0.7-1.6l0,0
				c0.6-0.2,1.3,0.1,1.6,0.7l2.1,5.2C94.1,79.8,93.8,80.5,93.1,80.7z"/>
		</g>
	</g>
	
		<line id="XMLID_271_" fill="#91D8F7" stroke="#000000" stroke-width="3" stroke-linecap="round" stroke-miterlimit="10" x1="22" y1="88.4" x2="34.8" y2="88"/>
	
		<line id="XMLID_32_" fill="#91D8F7" stroke="#000000" stroke-width="3" stroke-linecap="round" stroke-miterlimit="10" x1="69.6" y1="68.3" x2="76.4" y2="64.7"/>
	
		<line id="XMLID_33_" fill="#91D8F7" stroke="#000000" stroke-width="3" stroke-linecap="round" stroke-miterlimit="10" x1="29.9" y1="37.6" x2="24.8" y2="29"/>
	
		<line id="XMLID_34_" fill="#91D8F7" stroke="#000000" stroke-width="3" stroke-linecap="round" stroke-miterlimit="10" x1="95.8" y1="32.4" x2="105.7" y2="22.9"/>
</g>
</svg>
