<?xml version="1.0" encoding="utf-8"?>
<!-- Generator: Adobe Illustrator 19.0.0, SVG Export Plug-In . SVG Version: 6.00 Build 0)  -->
<svg version="1.2" baseProfile="tiny" id="Layer_2" xmlns="http://www.w3.org/2000/svg" xmlns:xlink="http://www.w3.org/1999/xlink"
	 x="0px" y="0px" width="167px" height="185px" viewBox="0 0 167 185" xml:space="preserve">
<g id="XMLID_29_">
	<g id="XMLID_1442_">
		<g id="XMLID_2129_">
			<circle id="XMLID_2161_" fill="#FFFFFF" cx="76" cy="123.2" r="30.2"/>
			<g id="XMLID_2136_">
				<g id="XMLID_2137_">
					<ellipse id="XMLID_2160_" fill="#DCDDDE" cx="65.8" cy="181.7" rx="48.1" ry="3.3"/>
					<g id="XMLID_2141_">
						<g id="XMLID_2145_">
							<path id="XMLID_2159_" fill="#56C0C4" stroke="#000000" stroke-width="3" stroke-linecap="round" stroke-miterlimit="10" d="
								M50.4,139.2l-28.8,28.2c-2.9,2.9-2.9,7.6-0.1,10.5l0,0c2.9,2.9,7.6,2.9,10.5,0.1l28.8-28.2L50.4,139.2z"/>
						</g>
						<path id="XMLID_2142_" fill="#8FD5E0" stroke="#000000" stroke-width="3" stroke-linecap="round" stroke-miterlimit="10" d="
							M76.9,85.4c-20.5,0-37.2,16.6-37.2,37.2s16.6,37.2,37.2,37.2s37.2-16.6,37.2-37.2S97.5,85.4,76.9,85.4z M47.6,122.8
							c0-16.2,13.1-29.3,29.3-29.3s29.3,13.1,29.3,29.3s-13.1,29.3-29.3,29.3S47.6,138.9,47.6,122.8z"/>
					</g>
				</g>
			</g>
		</g>
	</g>
	<g id="XMLID_27_">
		<g id="XMLID_2_">
			
				<rect id="XMLID_3_" x="1.5" y="30" fill="#FFFFFF" stroke="#000000" stroke-width="3" stroke-linecap="round" stroke-linejoin="round" stroke-miterlimit="10" width="14.4" height="14.4"/>
			
				<rect id="XMLID_4_" x="22.7" y="30" fill="#FFFFFF" stroke="#000000" stroke-width="3" stroke-linecap="round" stroke-linejoin="round" stroke-miterlimit="10" width="14.4" height="14.4"/>
			
				<rect id="XMLID_5_" x="1.5" y="51.3" fill="#FFFFFF" stroke="#000000" stroke-width="3" stroke-linecap="round" stroke-linejoin="round" stroke-miterlimit="10" width="14.4" height="14.4"/>
			
				<rect id="XMLID_6_" x="22.7" y="51.3" fill="#FFFFFF" stroke="#000000" stroke-width="3" stroke-linecap="round" stroke-linejoin="round" stroke-miterlimit="10" width="14.4" height="14.4"/>
		</g>
		<g id="XMLID_7_">
			<path id="XMLID_15_" fill="#8FD5E0" stroke="#000000" stroke-width="3" stroke-linecap="round" stroke-miterlimit="10" d="
				M26.7,92.8H12c-0.8,0-1.5-0.7-1.5-1.5V76.6c0-0.8,0.7-1.5,1.5-1.5h14.7c0.8,0,1.5,0.7,1.5,1.5v14.7
				C28.2,92.1,27.5,92.8,26.7,92.8z"/>
			
				<polyline id="XMLID_8_" fill="none" stroke="#000000" stroke-width="3" stroke-linecap="round" stroke-linejoin="round" stroke-miterlimit="10" points="
				15.4,83.9 18.5,86.9 23.4,82.3 			"/>
		</g>
	</g>
	<g id="XMLID_28_">
		<g id="XMLID_2157_">
			<path id="XMLID_2149_" fill="#FFFFFF" stroke="#000000" stroke-width="3" stroke-linecap="round" stroke-miterlimit="10" d="
				M98.3,39.6H58.1c-0.8,0-1.4-0.6-1.4-1.4V3.7c0-0.8,0.6-1.4,1.4-1.4h40.1c0.8,0,1.4,0.6,1.4,1.4v34.4C99.7,38.9,99,39.6,98.3,39.6
				z"/>
			
				<circle id="XMLID_2148_" fill="#8FD5E0" stroke="#000000" stroke-width="3" stroke-linecap="round" stroke-miterlimit="10" cx="91.5" cy="16.9" r="2.8"/>
			<path id="XMLID_1440_" fill="#56C0C4" stroke="#000000" stroke-width="3" stroke-linecap="round" stroke-miterlimit="10" d="
				M89.1,26.3c-0.6-1-2-1-2.7-0.2L83,30.1c-0.7,0.9-2.1,0.8-2.7-0.2L72.6,18c-0.7-1.1-2.3-1-2.9,0.1L58.8,39.1
				c0.4,0.3,0.9,0.5,1.4,0.5h36.3c0.4,0,0.7-0.1,1-0.2L89.1,26.3z"/>
		</g>
		<g id="XMLID_9_">
			<path id="XMLID_11_" fill="#8FD5E0" stroke="#000000" stroke-width="3" stroke-linecap="round" stroke-miterlimit="10" d="
				M85.5,67.3H70.9c-0.8,0-1.5-0.7-1.5-1.5V51.1c0-0.8,0.7-1.5,1.5-1.5h14.7c0.8,0,1.5,0.7,1.5,1.5v14.7
				C87,66.7,86.4,67.3,85.5,67.3z"/>
			
				<polyline id="XMLID_10_" fill="none" stroke="#000000" stroke-width="3" stroke-linecap="round" stroke-linejoin="round" stroke-miterlimit="10" points="
				74.3,58.4 77.4,61.5 82.3,56.8 			"/>
		</g>
	</g>
	<g id="XMLID_1_">
		<g id="XMLID_24_">
			<path id="XMLID_26_" fill="#8FD5E0" stroke="#000000" stroke-width="3" stroke-linecap="round" stroke-miterlimit="10" d="
				M148.2,96.9h-14.7c-0.8,0-1.5-0.7-1.5-1.5V80.7c0-0.8,0.7-1.5,1.5-1.5h14.7c0.8,0,1.5,0.7,1.5,1.5v14.7
				C149.7,96.2,149.1,96.9,148.2,96.9z"/>
			
				<polyline id="XMLID_25_" fill="none" stroke="#000000" stroke-width="3" stroke-linecap="round" stroke-linejoin="round" stroke-miterlimit="10" points="
				137,87.9 140.1,91 145,86.4 			"/>
		</g>
		<g id="XMLID_12_">
			<path id="XMLID_13_" d="M119.5,70.4h-2.6c-0.7,0-1.3-0.6-1.3-1.3V35.1c0-0.7,0.6-1.3,1.3-1.3h2.6V70.4z"/>
			<rect id="XMLID_20_" x="153.1" y="33.8" width="3.9" height="36.5"/>
			<rect id="XMLID_14_" x="122.1" y="33.8" width="5.1" height="36.5"/>
			<rect id="XMLID_19_" x="145.1" y="33.8" width="5.1" height="36.5"/>
			<rect id="XMLID_16_" x="129.9" y="33.8" width="2.9" height="36.5"/>
			<rect id="XMLID_17_" x="134.6" y="33.8" width="1.5" height="36.5"/>
			<rect id="XMLID_22_" x="159.9" y="33.8" width="2.9" height="36.5"/>
			<path id="XMLID_21_" d="M165.7,70.4h-1.4V33.8h1.4c0.7,0,1.3,0.6,1.3,1.3v33.9C167,69.8,166.4,70.4,165.7,70.4z"/>
			<rect id="XMLID_18_" x="137.8" y="33.8" width="1.5" height="36.5"/>
			<rect id="XMLID_23_" x="140.9" y="33.8" width="1.5" height="36.5"/>
		</g>
	</g>
</g>
</svg>
